<svg width="30" height="30" viewBox="0 0 30 30" fill="none" xmlns="http://www.w3.org/2000/svg">
<path d="M22.3732 15.3413C22.4082 17.8019 23.6172 19.6297 26 20.8248C25.4744 22.3362 24.8436 23.6015 24.1076 24.6209C23.6171 25.3592 23.2229 25.9129 22.9249 26.282C22.627 26.6511 22.2064 27.0202 21.6632 27.3892C21.1199 27.7583 20.5679 27.9429 20.0073 27.9429C19.4117 27.978 18.6932 27.811 17.852 27.4419C17.0109 27.0728 16.2399 26.8882 15.539 26.8882C14.803 26.8882 14.0057 27.064 13.1472 27.4155C12.2886 27.7671 11.5966 27.9604 11.071 27.9956C10.5453 28.0308 10.002 27.855 9.44123 27.4683C8.88043 27.0815 8.42488 26.6773 8.07456 26.2556C7.72407 25.8338 7.30347 25.2713 6.81278 24.5682C6.00682 23.3732 5.34096 22.0112 4.81522 20.4821C4.28965 18.9529 4.01811 17.3097 4.00058 15.5522C3.98306 13.7948 4.35975 12.2657 5.13067 10.9651C5.69146 9.9458 6.47122 9.12851 7.46996 8.51328C8.46869 7.89823 9.54629 7.5907 10.7027 7.5907C11.1933 7.5907 11.7364 7.68738 12.332 7.88074C12.9279 8.07409 13.4798 8.26745 13.9878 8.46081C14.4961 8.65417 14.8904 8.75085 15.1708 8.75085C15.3811 8.75085 16.0907 8.53112 17.2998 8.09167C18.5088 7.6524 19.5163 7.46792 20.3222 7.53823C22.4599 7.60854 24.107 8.50484 25.2634 10.2271C23.301 11.4926 22.3373 13.1974 22.3724 15.3415L22.3732 15.3413ZM14.9613 7.22156C14.751 5.78034 15.224 4.39194 16.3805 3.05636C16.8712 2.49387 17.4932 2.01935 18.2466 1.63281C19 1.24609 19.7097 1.03516 20.3756 1C20.5509 2.54669 20.0778 3.98782 18.9564 5.3234C18.4657 5.92105 17.8611 6.40445 17.1426 6.77359C16.424 7.14272 15.6969 7.29214 14.961 7.22182L14.9613 7.22156Z" fill="black"/>
</svg>
