<svg width="150" height="150" viewBox="0 0 150 150" fill="none" xmlns="http://www.w3.org/2000/svg">
<rect x="1" y="1" width="148" height="148" rx="74" stroke="#1C1C1C" stroke-width="2"/>
<path d="M117 64.0674C117 87.4589 104.019 104.872 84.9242 104.872C78.5102 104.872 72.4815 101.393 70.4638 97.4427C69.0942 102.893 67.7042 108.338 66.2938 113.778C65.0526 118.347 62.509 122.923 60.2712 126.482C53.8939 130.996 53.3008 124.007 53.3008 124.007C53.1541 119.817 53.2275 114.789 54.3158 110.305C54.3158 110.305 55.4714 105.497 61.9587 77.9345C60.0327 74.137 60.0327 68.4836 60.0327 68.4836C60.0327 59.6574 65.1382 53.073 71.4788 53.073C76.8899 53.073 79.513 57.1768 79.513 62.0584C79.513 67.4791 76.0278 75.6131 74.2608 83.1224C72.7933 89.4741 77.428 94.5823 83.6096 94.5823C94.9028 94.5823 102.466 80.1089 102.466 62.9894C102.466 49.9002 93.6616 40.1492 77.7337 40.1492C59.727 40.1492 48.5194 53.6243 48.5194 68.6428C48.5194 73.8369 50.0602 77.4751 52.457 80.3416C53.5454 81.6585 53.6983 82.1179 53.3069 83.6675C53.0073 84.7517 52.3898 87.3854 52.078 88.3899C51.6928 89.9396 50.4515 90.4786 49.1431 89.9396C40.8704 86.5218 37 77.3894 37 67.1667C37 50.2861 51.2158 30 79.3601 30C102.087 30 117 46.4886 117 64.0674Z" fill="#1C1C1C"/>
</svg>
