<svg width="150" height="150" viewBox="0 0 150 150" fill="none" xmlns="http://www.w3.org/2000/svg">
<rect x="1" y="1" width="148" height="148" rx="74" stroke="#1C1C1C" stroke-width="2"/>
<path d="M101.365 72.722C99.8569 72.2733 97.8417 71.9059 98.6308 69.9487C100.34 65.7016 100.534 61.0291 98.6811 58.4143C95.2076 53.5097 86.6709 54.8519 75.7825 59.3581C75.7825 59.3504 72.3632 60.8357 73.2374 58.1551C74.9122 52.8328 74.6608 48.3768 72.0538 45.8007C66.1434 39.9562 50.4316 46.0212 36.9555 59.331C26.86 69.3066 21 79.8778 21 89.0141C21 106.494 43.6858 117.123 65.8804 117.123C94.9755 117.123 113.72 100.309 113.72 87.0452C113.72 79.0346 107.5 74.6019 101.365 72.722ZM65.9423 110.861C48.2307 112.586 32.9444 104.676 31.7956 93.1876C30.6468 81.6997 44.0726 70.9853 61.7842 69.2563C79.4958 67.5273 94.786 75.4374 95.9309 86.9215C97.0759 98.4133 83.6539 109.128 65.9423 110.861Z" fill="#1C1C1C"/>
<path d="M121.765 41.0625C114.501 33.5083 103.79 30.6305 93.9036 32.6032H93.8997C91.6099 33.0635 90.1555 35.1754 90.6429 37.3144C91.1303 39.4573 93.3814 40.8266 95.6674 40.3701C102.699 38.9699 110.312 41.02 115.475 46.3849C120.632 51.7498 122.036 59.0681 119.823 65.4812C119.104 67.5699 120.322 69.8056 122.554 70.4825C124.774 71.1556 127.165 70.0145 127.884 67.9296C127.884 67.9258 127.884 67.918 127.884 67.918C130.986 58.894 129.029 48.609 121.765 41.0625Z" fill="#1C1C1C"/>
<path d="M110.92 50.9683C107.412 47.197 102.232 45.7658 97.4477 46.7522C95.4944 47.1545 94.2489 49.0188 94.6666 50.9142C95.0844 52.8017 97.0068 54.0124 98.9562 53.6024V53.6063C101.293 53.1267 103.83 53.8268 105.543 55.6641C107.261 57.5091 107.721 60.0194 106.986 62.2242H106.99C106.379 64.0654 107.416 66.0419 109.319 66.6376C111.222 67.2255 113.26 66.2237 113.875 64.3787C115.376 59.8724 114.436 54.7396 110.92 50.9683Z" fill="#1C1C1C"/>
<path d="M71.8796 73.5686C63.1998 71.3561 53.3906 75.5916 49.6231 83.0761C45.7861 90.7116 49.4955 99.1864 58.2642 101.956C67.3463 104.822 78.0491 100.428 81.7701 92.1892C85.4408 84.136 80.8572 75.8391 71.8796 73.5686ZM65.2498 92.7229C63.486 95.4228 59.7109 96.6064 56.864 95.3609C54.0597 94.1348 53.232 90.9978 54.9958 88.3676C56.7402 85.7451 60.3878 84.5769 63.2114 85.7141C66.0699 86.8823 66.9827 89.996 65.2498 92.7229ZM71.0635 85.5671C70.4252 86.6115 69.0173 87.1182 67.911 86.6811C66.8241 86.2518 66.4837 85.0798 67.1026 84.0547C67.737 83.0336 69.0946 82.5308 70.1777 82.9446C71.2762 83.3276 71.6707 84.5112 71.0635 85.5671Z" fill="#1C1C1C"/>
</svg>
