<svg width="150" height="150" viewBox="0 0 150 150" fill="none" xmlns="http://www.w3.org/2000/svg">
<rect x="1" y="1" width="148" height="148" rx="74" stroke="#1C1C1C" stroke-width="2"/>
<path d="M127.473 45.503C123.852 47.0651 119.911 48.1894 115.852 48.6272C120.041 46.1302 123.225 42.1893 124.728 37.503C120.858 39.8107 116.479 41.503 111.923 42.3787C108.231 38.4379 102.988 36 97.1775 36C85.9941 36 77 45.0651 77 56.1894C77 57.7515 77.1894 59.3136 77.497 60.8166C60.7515 59.9408 45.8166 51.9408 35.8876 39.6923C34.1361 42.6982 33.142 46.1302 33.142 49.8817C33.142 56.8876 36.7041 63.0651 42.1361 66.6982C38.8225 66.568 35.6982 65.6331 33.0118 64.1302V64.3787C33.0118 74.1893 39.9467 82.3195 49.1894 84.1894C47.497 84.6272 45.6864 84.8757 43.8757 84.8757C42.5621 84.8757 41.3195 84.7456 40.0651 84.5681C42.6213 92.5681 50.0651 98.3787 58.929 98.568C51.9941 104 43.3077 107.195 33.8757 107.195C32.1834 107.195 30.6213 107.136 29 106.947C37.9467 112.686 48.5621 116 59.9941 116C97.1065 116 117.414 85.2544 117.414 58.568C117.414 57.6923 117.414 56.8166 117.355 55.9408C121.284 53.0651 124.728 49.503 127.473 45.503Z" fill="#1C1C1C"/>
</svg>
