<svg width="150" height="150" viewBox="0 0 150 150" fill="none" xmlns="http://www.w3.org/2000/svg">
<rect x="1" y="1" width="148" height="148" rx="74" stroke="#1C1C1C" stroke-width="2"/>
<path d="M74.9893 59.9941C66.7261 59.9941 59.9827 66.7376 59.9827 75.0008C59.9827 83.264 66.7261 90.0074 74.9893 90.0074C83.2525 90.0074 89.9959 83.264 89.9959 75.0008C89.9959 66.7376 83.2525 59.9941 74.9893 59.9941Z" fill="#1C1C1C"/>
<path d="M119.998 75.0007C119.998 68.7864 120.054 62.6284 119.705 56.4254C119.356 49.2204 117.713 42.826 112.444 37.5573C107.164 32.2774 100.781 30.645 93.5761 30.2961C87.3618 29.9471 81.2038 30.0033 75.0007 30.0033C68.7864 30.0033 62.6284 29.9471 56.4254 30.2961C49.2204 30.645 42.826 32.2887 37.5573 37.5573C32.2774 42.8372 30.645 49.2204 30.2961 56.4254C29.9471 62.6397 30.0033 68.7977 30.0033 75.0007C30.0033 81.2038 29.9471 87.3731 30.2961 93.5761C30.645 100.781 32.2887 107.176 37.5573 112.444C42.8372 117.724 49.2204 119.356 56.4254 119.705C62.6397 120.054 68.7977 119.998 75.0007 119.998C81.2151 119.998 87.3731 120.054 93.5761 119.705C100.781 119.356 107.176 117.713 112.444 112.444C117.724 107.164 119.356 100.781 119.705 93.5761C120.066 87.3731 119.998 81.215 119.998 75.0007V75.0007ZM74.9895 98.0905C62.2119 98.0905 51.8998 87.7783 51.8998 75.0007C51.8998 62.2232 62.2119 51.911 74.9895 51.911C87.7671 51.911 98.0792 62.2232 98.0792 75.0007C98.0792 87.7783 87.7671 98.0905 74.9895 98.0905ZM99.0249 56.3578C96.0416 56.3578 93.6324 53.9487 93.6324 50.9654C93.6324 47.982 96.0416 45.5729 99.0249 45.5729C102.008 45.5729 104.417 47.982 104.417 50.9654C104.406 53.9599 102.008 56.3578 99.0249 56.3578Z" fill="#1C1C1C"/>
</svg>
