<svg width="150" height="150" viewBox="0 0 150 150" fill="none" xmlns="http://www.w3.org/2000/svg">
<rect x="1" y="1" width="148" height="148" rx="74" stroke="#1C1C1C" stroke-width="2"/>
<path fill-rule="evenodd" clip-rule="evenodd" d="M44.7282 57.5H38.608V85.7617H34.5789L38.1053 91H42.5132C43.9237 91 44.7282 89.2539 44.7282 88.3808V57.5ZM54.8553 66.5547H49.5658V71.793C49.5658 78.7773 51.3289 85.7617 53.9737 87.5078C54.5614 85.7617 55.9132 81.9203 56.6184 80.5234C55.7368 77.9043 54.8553 70.3379 54.8553 66.5547ZM70.7237 57.8241H64.5527L59.2632 68.3007C58.6755 69.4648 58.3816 71.7929 61.9079 71.7929H65.4343L61.9079 79.6503C61.6141 80.5234 61.5553 82.2695 63.6711 82.2695H70.7237L72.4869 77.9042H69.8422C69.2544 77.9042 68.2553 77.555 68.9606 76.1581C69.2492 75.5864 69.9415 74.3616 70.7593 72.9144C71.9399 70.8256 73.3821 68.2737 74.25 66.5546H67.1974L70.7237 57.8241ZM27.5263 65.6817H33.6974C34.5789 69.4649 33.6974 81.3965 29.2895 88.3809C27.1737 84.8887 26.057 82.2696 25.7632 81.3965C26.3509 79.0684 27.5263 73.3645 27.5263 69.1739V65.6817ZM94.5263 59.5702H98.9342V57.8241H105.105V59.5702H110.395C111.864 59.5702 114.803 60.4433 114.803 63.9355V71.4687H117.447C118.917 71.4687 121.855 72.4913 121.855 75.2851V85.7617C121.855 87.5077 121.15 90.9999 118.329 90.9999H112.158L109.513 85.7617H115.684V79.6503C115.684 78.7773 115.332 77.0312 113.921 77.0312H105.105V90.9999H98.9342V77.0312H92.7632V71.4687H98.9342V65.3574H94.5263V59.5702ZM92.7632 90.9999H70.7237L73.3684 85.7617H79.5395V65.6816H76.0132V59.5702H90.1184V65.6816H86.5921V85.7617H92.7632V90.9999ZM69.8421 84.8886H60.1447L56.6184 90.9999H65.4342C66.1395 90.9999 66.9035 90.4179 67.1974 90.1269L69.8421 84.8886ZM120.092 65.6816H116.566V62.1894C117.447 59.5702 119.211 59.5702 120.092 59.5702C120.974 59.5702 122.737 60.4433 122.737 63.0624C122.737 65.1577 120.974 65.6816 120.092 65.6816ZM110.395 71.4687H105.105V65.3573H110.395V71.4687Z" fill="#1C1C1C"/>
</svg>
