<svg width="30" height="30" viewBox="0 0 30 30" fill="none" xmlns="http://www.w3.org/2000/svg">
<path fill-rule="evenodd" clip-rule="evenodd" d="M12.0005 7.00013C12.0005 7.00012 12.0005 7.00011 12.0005 7.0001V6.00008C12.0005 4.34318 13.3436 3 15.0005 3C16.6574 3 18.0006 4.34318 18.0006 6.00007V7.0001C18.0006 7.00011 18.0006 7.00012 18.0006 7.00013H23.0005C24.1051 7.00013 25.0005 7.89556 25.0005 9.00013V14.0001H26C27.6569 14.0001 29.0001 15.3432 29.0001 17.0001C29.0001 18.657 27.6569 20.0002 26 20.0002H25.0005V25.0006C25.0005 26.1052 24.1051 27.0006 23.0005 27.0006H18.0006V27.0005C18.0006 25.3436 16.6574 24.0004 15.0005 24.0004C13.3436 24.0004 12.0004 25.3436 12.0004 27.0005V27.0006H7C5.89543 27.0006 5 26.1052 5 25.0006V20.0006C6.65688 20.0005 8.00005 18.6574 8.00005 17.0005C8.00005 15.3436 6.65688 14.0004 5 14.0004V9.00013C5 7.89556 5.89543 7.00013 7 7.00013H12.0005Z" fill="#1C1C1C"/>
</svg>
