<svg width="150" height="150" viewBox="0 0 150 150" fill="none" xmlns="http://www.w3.org/2000/svg">
<rect x="1" y="1" width="148" height="148" rx="74" stroke="#1C1C1C" stroke-width="2"/>
<path d="M54.3203 52.3784C54.3203 51.0514 53.9137 49.9826 53.1007 49.1723C52.2877 48.3619 51.2131 47.9576 49.8768 47.9594C48.4768 47.9594 47.24 48.3719 46.1663 49.1967C45.0925 50.0216 44.5557 51.0822 44.5557 52.3784C44.5557 53.6402 45.0925 54.6845 46.1663 55.5112C47.24 56.3379 48.4768 56.7503 49.8768 56.7485C51.2112 56.7485 52.2859 56.3515 53.1007 55.5574C53.9156 54.7633 54.3221 53.7028 54.3203 52.3757V52.3784ZM90.6004 76.9999C90.6004 76.0934 90.1857 75.2839 89.3562 74.5714C88.5268 73.859 87.4604 73.5027 86.157 73.5027C85.2783 73.5027 84.4726 73.8671 83.7397 74.5959C83.0069 75.3247 82.6405 76.126 82.6405 76.9999C82.6405 77.9063 83.0069 78.724 83.7397 79.4528C84.4726 80.1816 85.2783 80.546 86.157 80.546C87.4585 80.546 88.525 80.1897 89.3562 79.4772C90.1875 78.7648 90.6022 77.939 90.6004 76.9999ZM79.0776 52.3784C79.0776 51.0514 78.6784 49.9826 77.8799 49.1723C77.0815 48.3619 76.015 47.9576 74.6806 47.9594C73.2806 47.9594 72.0438 48.3719 70.9701 49.1967C69.8963 50.0216 69.3595 51.0822 69.3595 52.3784C69.3595 53.6402 69.8963 54.6845 70.9701 55.5112C72.0438 56.3379 73.2806 56.7503 74.6806 56.7485C76.015 56.7485 77.0815 56.3515 77.8799 55.5574C78.6784 54.7633 79.0776 53.7028 79.0776 52.3757V52.3784ZM110.083 76.9999C110.083 76.0934 109.66 75.2839 108.814 74.5714C107.968 73.859 106.91 73.5027 105.64 73.5027C104.761 73.5027 103.955 73.8671 103.222 74.5959C102.49 75.3247 102.123 76.126 102.123 76.9999C102.123 77.9063 102.49 78.724 103.222 79.4528C103.955 80.1816 104.761 80.546 105.64 80.546C106.908 80.546 107.967 80.1897 108.814 79.4772C109.662 78.7648 110.085 77.939 110.083 76.9999ZM97.0946 57.7193C96.0847 57.5906 94.9453 57.5263 93.6766 57.5263C88.175 57.5263 83.1126 58.7726 78.4897 61.2654C73.8667 63.7582 70.229 67.133 67.5767 71.3897C64.9243 75.6465 63.5981 80.3003 63.5981 85.3511C63.5981 87.8766 63.9727 90.3367 64.7219 92.7316C63.5826 92.8295 62.4761 92.8784 61.4024 92.8784C60.5565 92.8784 59.7426 92.854 58.9605 92.805C58.1785 92.7561 57.2834 92.6509 56.2754 92.4896C55.2673 92.3282 54.5427 92.2149 54.1015 92.1496C53.6604 92.0844 52.7735 91.914 51.4409 91.6384C50.1084 91.3628 49.2944 91.1924 48.9991 91.1271L36.645 97.2947L40.1615 86.7081C30.7205 80.1362 26 72.2047 26 62.9134C26 57.442 27.5869 52.4074 30.7606 47.8098C33.9343 43.2122 38.231 39.5945 43.6506 36.9567C49.0702 34.3189 54.9865 33 61.3996 33C67.1291 33 72.5414 34.0687 77.6365 36.2062C82.7317 38.3436 86.9964 41.2978 90.4308 45.0687C93.8653 48.8396 96.0874 53.0565 97.0973 57.7193H97.0946ZM126 84.9623C126 88.7495 124.885 92.3672 122.656 95.8154C120.426 99.2636 117.407 102.395 113.597 105.211L116.282 114L106.564 108.708C101.68 109.906 98.1318 110.506 95.9188 110.506C90.4172 110.506 85.3549 109.364 80.7319 107.082C76.1089 104.799 72.4712 101.699 69.8189 97.7815C67.1665 93.8638 65.8403 89.5907 65.8403 84.9623C65.8403 80.3339 67.1665 76.0608 69.8189 72.143C72.4712 68.2253 76.1089 65.1252 80.7319 62.8427C85.3549 60.5602 90.4172 59.419 95.9188 59.419C101.16 59.419 106.092 60.5602 110.715 62.8427C115.338 65.1252 119.041 68.2334 121.825 72.1675C124.608 76.1016 126 80.3665 126 84.9623V84.9623Z" fill="#1C1C1C"/>
</svg>
