<svg width="30" height="30" viewBox="0 0 30 30" fill="none" xmlns="http://www.w3.org/2000/svg">
<path d="M25.2936 10.1076C24.36 10.1076 23.5866 10.8334 23.5866 11.7147V17.9643C23.5866 18.8456 24.3336 19.572 25.2936 19.572C26.2266 19.572 27 18.8456 27 17.9638V11.7153C26.9736 10.834 26.2266 10.1082 25.2936 10.1082V10.1076ZM4.7064 10.1076C3.774 10.1076 3 10.8334 3 11.7141V17.9643C3 18.8456 3.7464 19.572 4.7064 19.572C5.6664 19.572 6.4134 18.8456 6.4134 17.9638V11.7153C6.4134 10.834 5.6664 10.1082 4.7064 10.1082V10.1076ZM7.4532 10.1595V21.5937C7.4532 22.2677 8.04 22.8379 8.7864 22.8379H10.3068V26.3124C10.3068 27.1942 11.0532 27.92 12.0132 27.92C12.9468 27.92 13.7202 27.1942 13.7202 26.3124V22.8379H16.3866V26.3124C16.3866 27.1942 17.1336 27.92 18.0936 27.92C19.026 27.92 19.8 27.1942 19.8 26.3124V22.8379H21.3198C22.0668 22.8379 22.6536 22.2936 22.6536 21.5937V10.1589H7.4532V10.1595ZM18.6 4.24735L20.0136 2.38051C20.0664 2.25091 20.0664 2.09539 19.9332 2.04355C19.8264 1.96579 19.6668 2.01763 19.5864 2.12131L18.1464 4.06591C17.1371 3.70886 16.0728 3.52474 15 3.52159C13.8798 3.52159 12.8136 3.70303 11.8536 4.06591L10.4136 2.1219C10.3332 1.9923 10.1736 1.96579 10.0668 2.04355C10.0149 2.08174 9.98014 2.13832 9.97005 2.20126C9.95997 2.2642 9.97531 2.32851 10.0128 2.38051L11.4264 4.24794C9.2136 5.20698 7.6404 7.02197 7.4532 9.148H22.6272C22.3872 7.02138 20.8398 5.20698 18.6 4.24735V4.24735ZM11.8002 7.20341C11.3202 7.20341 10.9734 6.86645 10.9734 6.42581C10.9734 5.98458 11.3466 5.64821 11.8002 5.64821C12.2802 5.64821 12.6264 5.98458 12.6264 6.42581C12.6264 6.86645 12.2532 7.20341 11.8002 7.20341ZM18.3066 7.20341C17.8266 7.20341 17.4798 6.86645 17.4798 6.42581C17.4798 5.98458 17.8536 5.64821 18.3066 5.64821C18.7866 5.64821 19.1334 5.98458 19.1334 6.42581C19.1334 6.86645 18.7602 7.20341 18.3066 7.20341Z" fill="black"/>
</svg>
