<svg width="150" height="150" viewBox="0 0 150 150" fill="none" xmlns="http://www.w3.org/2000/svg">
<rect x="1" y="1" width="148" height="148" rx="74" stroke="#1C1C1C" stroke-width="2"/>
<path d="M114 57.7169L106.389 59.7599C106.102 58.8905 105.8 58.1052 105.542 57.3055C104.521 54.0891 102.988 51.0619 101.002 48.3426C98.5772 45.008 95.3872 42.3155 91.7053 40.4954C88.897 39.1121 85.9032 38.1505 82.819 37.6411C77.1967 36.647 71.4308 36.8444 65.8882 38.2207C61.9997 39.1399 58.3664 40.9306 55.258 43.4599C51.8305 46.2707 49.4114 49.835 47.6387 53.8687C45.7167 58.2617 44.7657 62.8808 44.2457 67.6216C43.5487 73.9019 43.7995 80.2526 44.9898 86.4571C45.8833 91.137 47.4089 95.5851 49.9946 99.5957C52.3472 103.305 55.6272 106.323 59.5043 108.347C64.446 110.935 69.7352 111.842 75.2169 111.963C79.0688 112.075 82.9153 111.598 86.6258 110.549C90.0368 109.597 93.1743 107.84 95.7792 105.423C96.9899 104.339 98.0961 103.142 99.0832 101.847C101.593 98.507 102.71 94.3107 102.198 90.1518C101.879 87.283 100.879 84.7242 98.9625 82.6176C97.9484 81.499 96.6641 80.621 95.5149 79.6386C95.3995 79.5742 95.2771 79.5237 95.15 79.488C94.9116 80.7079 94.7306 81.9018 94.4375 83.0638C93.6618 86.1152 92.4867 88.9608 90.5676 91.5108C87.5422 95.533 83.4453 97.5006 78.6301 98.2221C74.8621 98.8014 71.0087 98.3283 67.4885 96.8544C64.4776 95.6083 61.978 93.6407 60.2513 90.8183C58.3235 87.6713 57.8236 84.2229 58.4298 80.6123C59.0763 76.764 61.1362 73.8199 64.2506 71.5683C67.2414 69.4066 70.6345 68.3489 74.2401 67.9113C78.4042 67.4275 82.614 67.5143 86.755 68.1692C86.9073 68.1924 87.0625 68.2011 87.3641 68.2301C87.1515 67.3173 87.0165 66.4624 86.7464 65.654C86.0368 63.5386 85.0226 61.6376 83.1379 60.2902C81.5514 59.1835 79.709 58.5078 77.7883 58.3284C75.1825 58.0212 72.6341 58.2675 70.1978 59.3484C68.5672 60.0899 67.1469 61.2316 66.0663 62.6692C65.9457 62.8228 65.8422 62.988 65.6928 63.2053C65.0062 62.7533 64.3483 62.336 63.7105 61.8984C62.3199 60.9422 60.9495 59.9627 59.5532 59.0209C59.1969 58.7833 59.2199 58.6124 59.4469 58.3052C61.2167 55.9116 63.314 53.8977 65.9658 52.5096C68.1304 51.3576 70.4913 50.6281 72.9243 50.3595C75.9754 49.985 79.0692 50.2004 82.0404 50.9941C86.5941 52.272 90.0849 54.9148 92.4322 59.0876C93.9081 61.7812 94.8415 64.7425 95.1788 67.8012C95.2765 68.5807 95.3195 69.3689 95.446 70.1455C95.5027 70.4023 95.6576 70.6261 95.8769 70.7685C97.164 71.5017 98.5201 72.1218 99.767 72.9187C103.522 75.321 106.487 78.4795 108.245 82.632C110.67 88.3552 110.782 94.2087 108.82 100.091C107.8 103.074 106.217 105.829 104.16 108.205C101.87 110.915 99.1516 113.226 96.1154 115.044C92.9516 116.923 89.4954 118.25 85.8931 118.967C80.2691 120.129 74.4896 120.312 68.8043 119.509C65.7846 119.108 62.8167 118.378 59.9525 117.333C56.5089 116.059 53.294 114.228 50.4342 111.911C47.6909 109.672 45.3271 106.997 43.4355 103.992C41.3032 100.596 39.6488 96.9185 38.5197 93.0641C37.6969 90.1987 37.0871 87.2754 36.6953 84.3186C35.839 78.2894 35.7733 72.1728 36.5 66.1263C36.9109 62.2278 37.7265 58.3836 38.9334 54.6569C39.9693 51.4737 41.3692 48.423 43.1051 45.5666C45.4228 41.7536 48.4747 38.4478 52.0804 35.8445C56.0624 32.9728 60.4927 31.1675 65.2619 30.104C69.792 29.138 74.4322 28.8036 79.0524 29.1101C83.0776 29.3216 87.0534 30.1019 90.8635 31.4283C94.988 32.8375 98.8035 35.0377 102.1 37.9077C104.518 40.0225 106.638 42.4597 108.403 45.1522C110.129 47.7776 111.544 50.598 112.618 53.5557C113.109 54.9061 113.523 56.2738 114 57.7169ZM79.2162 75.7353C78.3945 75.7353 77.57 75.6948 76.7511 75.7353C74.2545 75.8773 71.8124 76.2656 69.6002 77.558C68.0372 78.4708 66.8133 79.7169 66.3077 81.4787C65.3481 84.8199 66.822 87.5901 69.8243 89.097C72.7203 90.5459 75.7887 90.6618 78.9145 90.0069C80.2383 89.7513 81.4894 89.2029 82.5778 88.4012C83.6663 87.5995 84.565 86.5644 85.2093 85.3705C86.6918 82.7625 87.2492 79.8647 87.5078 76.9147C87.5451 76.5004 87.3325 76.4076 86.9935 76.3352C84.4298 75.8557 81.8224 75.6546 79.2162 75.7353Z" fill="#1C1C1C"/>
</svg>
