<svg width="28" height="28" viewBox="0 0 28 28" fill="none" xmlns="http://www.w3.org/2000/svg">
<g clip-path="url(#clip0_3564_692)">
<rect x="0.2" y="0.2" width="27.6" height="27.6" rx="13.8" stroke="#1C1C1C" stroke-width="0.4"/>
<path d="M10.364 10.5495V20H7.18497V10.5495H10.364ZM10.5662 7.63083C10.5728 8.09469 10.4104 8.48246 10.0791 8.79414C9.74782 9.10582 9.31253 9.26166 8.77324 9.26166H8.75351C8.22655 9.26166 7.80277 9.10582 7.48215 8.79414C7.16154 8.48246 7.00082 8.09469 7 7.63083C7 7.16046 7.16524 6.77106 7.49572 6.46264C7.8262 6.15421 8.2582 6 8.79173 6C9.32527 6 9.75234 6.15421 10.073 6.46264C10.3936 6.77106 10.5572 7.16046 10.5637 7.63083H10.5662ZM21.7988 14.5826V19.9988H18.6296V14.9439C18.6296 14.2766 18.4997 13.7538 18.24 13.3754C17.9802 12.9969 17.5741 12.8077 17.0216 12.8077C16.6172 12.8077 16.2785 12.9176 16.0055 13.1373C15.7326 13.357 15.5287 13.6289 15.3939 13.9527C15.3232 14.1432 15.2879 14.4007 15.2879 14.7254V19.9988H12.1187C12.1319 17.4622 12.1384 15.4054 12.1384 13.8282C12.1384 12.2511 12.1352 11.31 12.1286 11.0048L12.1187 10.547H15.2879V11.9203H15.2681C15.3964 11.7169 15.5279 11.5386 15.6627 11.3856C15.7975 11.2327 15.9788 11.0675 16.2065 10.8901C16.4342 10.7126 16.7138 10.5743 17.0451 10.475C17.3764 10.3757 17.7442 10.3265 18.1487 10.3273C19.247 10.3273 20.1299 10.6882 20.7975 11.4101C21.465 12.1319 21.7992 13.189 21.8 14.5814L21.7988 14.5826Z" fill="#1C1C1C"/>
</g>
<defs>
<clipPath id="clip0_3564_692">
<rect width="28" height="28" fill="white"/>
</clipPath>
</defs>
</svg>
