<svg width="28" height="28" viewBox="0 0 28 28" fill="none" xmlns="http://www.w3.org/2000/svg">
<rect x="0.2" y="0.2" width="27.6" height="27.6" rx="13.8" stroke="#1C1C1C" stroke-width="0.4"/>
<path d="M20.9576 9.06556C20.0266 8.86722 19.1836 8.37791 18.5514 7.66894C17.9192 6.95998 17.5309 6.06844 17.4431 5.12429V4.71484H14.2317V17.4086C14.2297 17.9706 14.051 18.5178 13.7206 18.9734C13.3902 19.429 12.9249 19.77 12.3899 19.9486C11.8548 20.1271 11.2771 20.1343 10.7378 19.969C10.1986 19.8036 9.72483 19.4742 9.38324 19.0269C9.03635 18.5721 8.84392 18.0191 8.83386 17.4481C8.8238 16.8771 8.99662 16.3177 9.32728 15.851C9.65794 15.3844 10.1292 15.0348 10.6728 14.853C11.2164 14.6711 11.804 14.6664 12.3505 14.8396V11.59C11.1319 11.4222 9.89122 11.638 8.80187 12.2071C7.71252 12.7762 6.82902 13.6702 6.27495 14.7641C5.72088 15.8579 5.52396 17.0969 5.71172 18.3077C5.89948 19.5185 6.46253 20.6406 7.32213 21.517C8.14187 22.3524 9.19297 22.9255 10.3412 23.1633C11.4895 23.401 12.6829 23.2926 13.769 22.8518C14.8551 22.411 15.7847 21.6579 16.4391 20.6885C17.0935 19.7192 17.4431 18.5776 17.4431 17.4095V10.9234C18.741 11.8475 20.2972 12.343 21.8926 12.3402V9.16212C21.5784 9.16251 21.265 9.13014 20.9576 9.06556Z" fill="#1C1C1C"/>
</svg>
