<svg width="114" height="54" viewBox="0 0 114 54" fill="none" xmlns="http://www.w3.org/2000/svg">
<rect y="34" width="20" height="20" fill="#1C1C1C"/>
<path fill-rule="evenodd" clip-rule="evenodd" d="M12.0084 41.615H18.5L13.2493 45.3916L13.2508 45.396L13.2488 45.3921L10.0037 47.7237L10.0033 47.7234L4.74604 51.5L6.75726 45.3916L1.5 41.6089L7.99107 41.6155L10.0033 35.5L12.0084 41.615ZM10.0038 47.7238L15.2545 51.5L13.7096 46.7938L10.0038 47.7238Z" fill="white"/>
<rect x="23.4483" y="34" width="20" height="20" fill="#1C1C1C"/>
<path fill-rule="evenodd" clip-rule="evenodd" d="M35.4567 41.615H41.9483L36.6976 45.3916L36.6991 45.3961L36.6971 45.3921L33.4519 47.7237L33.4516 47.7234L28.1943 51.5L30.2055 45.3916L24.9483 41.6089L31.4393 41.6155L33.4516 35.5L35.4567 41.615ZM33.4521 47.7238L38.7027 51.5L37.1579 46.7938L33.4521 47.7238Z" fill="white"/>
<rect x="46.8966" y="34" width="20" height="20" fill="#1C1C1C"/>
<path fill-rule="evenodd" clip-rule="evenodd" d="M58.905 41.615H65.3966L60.1459 45.3916L60.1473 45.396L60.1454 45.3921L56.9002 47.7237L56.8999 47.7234L51.6426 51.5L53.6538 45.3916L48.3966 41.6089L54.8876 41.6155L56.8999 35.5L58.905 41.615ZM56.9004 47.7238L62.151 51.5L60.6062 46.7938L56.9004 47.7238Z" fill="white"/>
<rect x="70.3448" y="34" width="20" height="20" fill="#1C1C1C"/>
<path fill-rule="evenodd" clip-rule="evenodd" d="M82.3533 41.615H88.8449L83.5942 45.3916L83.5956 45.3959L83.5937 45.3921L80.3485 47.7237L80.3481 47.7234L75.0909 51.5L77.1021 45.3916L71.8448 41.6089L78.3359 41.6155L80.3481 35.5L82.3533 41.615ZM80.3487 47.7238L85.5993 51.5L84.0545 46.7938L80.3487 47.7238Z" fill="white"/>
<rect x="93.7931" y="34" width="20" height="20" fill="#DDDDDD"/>
<rect x="93.7931" y="34" width="10" height="20" fill="#1C1C1C"/>
<path fill-rule="evenodd" clip-rule="evenodd" d="M105.802 41.615H112.293L107.042 45.3916L107.044 45.396L107.042 45.3921L103.797 47.7237L103.796 47.7234L98.5392 51.5L100.55 45.3916L95.2931 41.6089L101.784 41.6155L103.796 35.5L105.802 41.615ZM103.797 47.7238L109.048 51.5L107.503 46.7938L103.797 47.7238Z" fill="white"/>
<g clip-path="url(#clip0_3066_31)">
<path d="M26.275 8.44941H36.3986V10.2826H32.4186V20.5899H30.2286V10.2826H26.2657V8.4487H26.2743L26.275 8.44941ZM35.9664 11.7988H37.8379V13.4958H37.8729C37.935 13.2558 38.0493 13.0242 38.2171 12.8012C38.5761 12.3231 39.0618 11.9525 39.6207 11.7303C39.9046 11.6192 40.2068 11.561 40.5121 11.5588C40.7407 11.5588 40.9093 11.5673 40.9979 11.5765C41.0857 11.5849 41.1736 11.6019 41.2707 11.6103V13.4781C41.1274 13.4533 40.9833 13.4333 40.8386 13.4181C40.6949 13.4013 40.5504 13.3928 40.4057 13.3927C40.07 13.3927 39.7529 13.4612 39.4529 13.5903C39.1529 13.7181 38.8964 13.9151 38.6764 14.1642C38.4417 14.4428 38.2619 14.7625 38.1464 15.1066C38.0143 15.4835 37.9521 15.9113 37.9521 16.4005V20.5814H35.9579V11.7988H35.9664ZM50.4414 20.5906H48.4821V19.3652H48.4464C48.1993 19.8113 47.8379 20.1628 47.3521 20.4282C46.8664 20.6936 46.3721 20.8306 45.8693 20.8306C44.6779 20.8306 43.8121 20.5482 43.2836 19.9736C42.7536 19.3998 42.4886 18.5343 42.4886 17.3774V11.7995H44.4836V17.1889C44.4836 17.9605 44.6336 18.5089 44.9429 18.8259C45.2429 19.1428 45.675 19.3059 46.2221 19.3059C46.6457 19.3059 46.99 19.2459 47.2721 19.1167C47.555 18.9882 47.7843 18.8259 47.9521 18.6113C48.1286 18.4059 48.2521 18.1489 48.3321 17.8574C48.4107 17.5659 48.4464 17.2489 48.4464 16.9066V11.808H50.4414V20.5906ZM53.8393 17.772C53.9014 18.3367 54.1214 18.732 54.5014 18.9628C54.8893 19.1859 55.3486 19.3059 55.8871 19.3059C56.0729 19.3059 56.2843 19.2882 56.5229 19.2628C56.7607 19.2367 56.99 19.1767 57.1936 19.1005C57.405 19.0228 57.5721 18.9028 57.7136 18.7489C57.8464 18.5936 57.9079 18.3974 57.8993 18.1489C57.8981 18.0336 57.8724 17.9198 57.8238 17.815C57.7752 17.7102 57.7048 17.6166 57.6171 17.5405C57.44 17.3781 57.22 17.2581 56.9457 17.1551C56.6402 17.0504 56.3275 16.9674 56.01 16.9066C55.6571 16.8381 55.3043 16.7605 54.9429 16.6835C54.5787 16.6057 54.2192 16.5084 53.8657 16.392C53.5342 16.287 53.2216 16.131 52.9393 15.9296C52.6642 15.7399 52.4399 15.487 52.2857 15.1927C52.1186 14.8927 52.0386 14.5242 52.0386 14.0788C52.0386 13.5988 52.1621 13.2049 52.4007 12.8788C52.6414 12.5554 52.952 12.2892 53.31 12.0995C53.6947 11.8985 54.1083 11.7569 54.5364 11.6795C54.9864 11.6026 55.4193 11.5595 55.825 11.5595C56.2929 11.5595 56.7429 11.6111 57.1671 11.7056C57.5779 11.7926 57.9694 11.9521 58.3229 12.1765C58.6671 12.3911 58.9493 12.6734 59.1793 13.0165C59.4086 13.3588 59.55 13.7788 59.6114 14.2673H57.5286C57.4314 13.8049 57.2193 13.488 56.8757 13.3334C56.5314 13.1711 56.1343 13.0934 55.6929 13.0934C55.5514 13.0934 55.3836 13.1019 55.19 13.128C55.0035 13.1525 54.8199 13.1955 54.6421 13.2565C54.4797 13.3156 54.3322 13.4091 54.21 13.5303C54.1507 13.5936 54.1046 13.6679 54.0743 13.7488C54.044 13.8297 54.0302 13.9157 54.0336 14.0019C54.0336 14.2419 54.1214 14.4303 54.2893 14.5758C54.4571 14.7212 54.6779 14.8412 54.9514 14.9442C55.225 15.0388 55.5343 15.1242 55.8871 15.1927C56.24 15.2612 56.6014 15.3381 56.9729 15.4158C57.3343 15.4927 57.6871 15.5958 58.0407 15.7066C58.3936 15.8181 58.7021 15.9727 58.9764 16.1696C59.25 16.3666 59.4707 16.6066 59.6379 16.8981C59.8057 17.1889 59.8943 17.5574 59.8943 17.9859C59.8943 18.5082 59.7707 18.9459 59.5229 19.3143C59.2764 19.6743 58.9586 19.9736 58.57 20.1967C58.1632 20.4283 57.7225 20.5959 57.2636 20.6936C56.7967 20.7951 56.3202 20.8467 55.8421 20.8475C55.3068 20.8535 54.773 20.7901 54.2543 20.6591C53.7686 20.5306 53.345 20.3421 52.9921 20.0943C52.6434 19.8439 52.3567 19.5186 52.1536 19.1428C51.9507 18.7659 51.8443 18.3113 51.8271 17.7889H53.8393V17.772ZM60.4236 11.8002H61.9329V9.16023H63.9279V11.8002H65.7279V13.2473H63.9286V17.9435C63.9286 18.1482 63.9371 18.3205 63.955 18.4743C63.9721 18.6205 64.0164 18.7489 64.0786 18.8513C64.1461 18.9588 64.2486 19.0405 64.3693 19.0828C64.5021 19.1343 64.6693 19.1605 64.8993 19.1605C65.04 19.1605 65.1814 19.1605 65.3229 19.1513C65.4643 19.1428 65.605 19.1259 65.7464 19.0913V20.5906C65.5257 20.6167 65.305 20.6336 65.1021 20.6591C64.8883 20.6836 64.6731 20.6952 64.4579 20.6936C63.9286 20.6936 63.505 20.6421 63.1864 20.5482C62.8693 20.4536 62.6129 20.3082 62.4364 20.1198C62.2507 19.9313 62.1364 19.6998 62.0657 19.4167C61.997 19.0984 61.9587 18.7744 61.9514 18.4489V13.2635H60.4422V11.7981H60.4243L60.4236 11.8002ZM67.14 11.8002H69.0293V12.9903H69.065C69.3464 12.4765 69.735 12.1165 70.2379 11.8941C70.7519 11.6683 71.3089 11.5542 71.8714 11.5595C72.5857 11.5595 73.2036 11.6795 73.7336 11.928C74.2629 12.168 74.7043 12.5026 75.0571 12.9303C75.41 13.3588 75.6664 13.8558 75.8429 14.4219C76.0226 15.0108 76.112 15.623 76.1079 16.2381C76.1079 16.8289 76.0286 17.4028 75.8693 17.952C75.723 18.4817 75.4808 18.9808 75.1543 19.4252C74.8335 19.8535 74.4166 20.2026 73.9364 20.4452C73.4421 20.7021 72.8686 20.8306 72.1979 20.8306C71.9047 20.8303 71.6121 20.8043 71.3236 20.7529C71.0358 20.7017 70.7547 20.6186 70.4857 20.5052C70.2185 20.395 69.9686 20.2476 69.7436 20.0675C69.5215 19.8925 69.328 19.6846 69.17 19.4513H69.1343V23.8383H67.14V11.7988V11.8002ZM74.1129 16.2035C74.1133 15.8128 74.0599 15.4238 73.9543 15.0473C73.8565 14.6905 73.6949 14.3539 73.4771 14.0534C73.2705 13.7675 73.0024 13.5303 72.6921 13.3588C72.3588 13.1808 71.9853 13.0895 71.6064 13.0934C70.7679 13.0934 70.1321 13.3758 69.7086 13.9419C69.285 14.5073 69.0729 15.2619 69.0729 16.2035C69.0729 16.6489 69.1264 17.0605 69.2407 17.4374C69.355 17.8143 69.5143 18.1405 69.7436 18.4143C69.965 18.6889 70.2293 18.9028 70.5386 19.0567C70.8471 19.2198 71.2093 19.2967 71.615 19.2967C72.0743 19.2967 72.4536 19.2028 72.7714 19.0228C73.0792 18.8478 73.3443 18.608 73.5479 18.3205C73.7507 18.0289 73.9014 17.7028 73.9893 17.3351C74.0705 16.9632 74.1119 16.5839 74.1129 16.2035ZM77.6343 8.44941H79.6293V10.2833H77.6343V8.44941ZM77.6343 11.7995H79.6293V20.5906H77.6343V11.7995ZM81.4121 8.44941H83.4071V20.5906H81.4121V8.44941ZM89.5236 20.8306C88.7993 20.8306 88.155 20.7106 87.5907 20.4798C87.0497 20.2605 86.5601 19.9337 86.1521 19.5198C85.7555 19.0974 85.4518 18.5985 85.26 18.0543C85.05 17.4537 84.9457 16.822 84.9514 16.1866C84.9514 15.5181 85.0571 14.9019 85.26 14.3358C85.4519 13.7919 85.7556 13.2932 86.1521 12.8711C86.54 12.4595 87.0257 12.1426 87.5907 11.9111C88.155 11.6795 88.7993 11.5595 89.5236 11.5595C90.2472 11.5595 90.8914 11.6795 91.4564 11.9111C92.0214 12.1426 92.4979 12.4687 92.895 12.8711C93.2915 13.293 93.5951 13.7918 93.7864 14.3358C93.9893 14.9012 94.095 15.5181 94.095 16.1866C94.095 16.8642 93.9893 17.4889 93.7864 18.0543C93.5952 18.5986 93.2916 19.0976 92.895 19.5198C92.5064 19.9313 92.0214 20.2482 91.4564 20.4798C90.8914 20.7106 90.2472 20.8306 89.5236 20.8306ZM89.5236 19.2967C89.965 19.2967 90.3529 19.2028 90.6793 19.0228C90.9975 18.8478 91.272 18.6047 91.4829 18.3113C91.6943 18.0205 91.8443 17.6859 91.9507 17.3174C92.0479 16.9489 92.1007 16.572 92.1007 16.1866C92.1007 15.8096 92.0479 15.4412 91.9507 15.0642C91.8598 14.7067 91.701 14.3694 91.4829 14.0703C91.2716 13.7797 90.997 13.5397 90.6793 13.368C90.3529 13.188 89.965 13.0934 89.5236 13.0934C89.0821 13.0934 88.6936 13.188 88.3671 13.368C88.0515 13.5423 87.7777 13.7819 87.5643 14.0703C87.3492 14.3712 87.1908 14.7079 87.0964 15.0642C86.9987 15.4306 86.948 15.8077 86.9457 16.1866C86.9457 16.572 86.9993 16.9489 87.0964 17.3174C87.1936 17.6859 87.3521 18.0205 87.5643 18.3113C87.7757 18.6028 88.0407 18.8428 88.3671 19.0228C88.6936 19.2113 89.0821 19.2967 89.5236 19.2967ZM94.6779 11.8002H96.1871V9.16023H98.1821V11.8002H99.9821V13.2473H98.1821V17.9435C98.1821 18.1482 98.1907 18.3205 98.2079 18.4743C98.2257 18.6205 98.27 18.7489 98.3321 18.8513C98.3995 18.9589 98.5021 19.0406 98.6229 19.0828C98.7557 19.1343 98.9229 19.1605 99.1529 19.1605C99.2936 19.1605 99.435 19.1605 99.5764 19.1513C99.7179 19.1428 99.8586 19.1259 100 19.0913V20.5906C99.7793 20.6167 99.5586 20.6336 99.3557 20.6591C99.1419 20.6836 98.9267 20.6952 98.7114 20.6936C98.1821 20.6936 97.7579 20.6421 97.44 20.5482C97.1229 20.4536 96.8664 20.3082 96.69 20.1198C96.505 19.9313 96.39 19.6998 96.3193 19.4167C96.2506 19.0984 96.2124 18.7743 96.205 18.4489V13.2635H94.6957V11.7981H94.6779V11.8002Z" fill="#1C1C1C"/>
<path fill-rule="evenodd" clip-rule="evenodd" d="M14.8014 8.44871H23.945L16.5493 13.6666L19.3736 22.1061L11.9779 16.8888L17.1843 15.5781L16.5486 13.6673L11.9777 16.8886L11.9771 16.8882L4.57214 22.1061L7.405 13.6666L0 8.44024L9.14286 8.44941L11.9771 0L14.8014 8.44871Z" fill="#1C1C1C"/>
</g>
<defs>
<clipPath id="clip0_3066_31">
<rect width="100" height="24" fill="white"/>
</clipPath>
</defs>
</svg>
